# xmcd
#
# Track frame offsets:
#	150
#	21490
#	46088
#	67868
#	91919
#	115151
#	138125
#	155076
#	171168
#	191044
#	211840
#	228729
#	257433
#
# Disc length: 3626 seconds
#
# Revision: 1
# Processed by: cddbd v1.5.2PL0 Copyright (c) Steve Scherf et al.
# Submitted via: audiograbber 1.83.01
#
DISCID=ab0e280d
DTITLE=Chapman, Roger - Peaceology
DYEAR=2014
DGENRE=R&B
TTITLE0=The 7th floor
TTITLE1=Oh brother, take me now
TTITLE2=EZ train
TTITLE3=Hell of a lullaby
TTITLE4=All too soon
TTITLE5=The only rose
TTITLE6=Sweet bird
TTITLE7=All the night paradise
TTITLE8=One more time for peace
TTITLE9=Devil gotta soon
TTITLE10=Naked hearts
TTITLE11=Heading back to Storyville
TTITLE12=Jerusalem
EXTD=
EXTT0=
EXTT1=
EXTT2=
EXTT3=
EXTT4=
EXTT5=
EXTT6=
EXTT7=
EXTT8=
EXTT9=
EXTT10=
EXTT11=
EXTT12=
PLAYORDER=
